<svg version="1.0" xmlns="http://www.w3.org/2000/svg" width="800.000000" height="800.000000" viewBox="0 0 800.000000 800.000000" preserveAspectRatio="xMidYMid meet">
  <metadata>
    <rdf:RDF xmlns:rdf="http://www.w3.org/1999/02/22-rdf-syntax-ns#" xmlns:rdfs="http://www.w3.org/2000/01/rdf-schema#" xmlns:dc="http://purl.org/dc/elements/1.1/">
      <rdf:Description dc:format="image/svg+xml" dc:Label="1" dc:ContentProducer="001191330110MACRLGPT8B00000" dc:ProduceID="445410035" dc:ReservedCode1="nWbffhBkQjJYQiC/MA5aagTQoyvWdV+Bc+ry0+KJJKI=" dc:ContentPropagator="001191330110MACRLGPT8B00000" dc:PropagateID="445410035" dc:ReservedCode2="nWbffhBkQjJYQiC/MA5aagTQoyvWdV+Bc+ry0+KJJKI="/>
    </rdf:RDF>
  </metadata>
  <g transform="translate(54.025248,771.871958) scale(0.089386,-0.089386)" fill="#000000" stroke="none">
    <path d="M3773 6489 c-83 -41 -123 -145 -88 -234 16 -43 67 -95 93 -95 8 0 12 -24 12 -70 0 -64 -2 -70 -22 -75 -13 -3 -142 -6 -288 -7 l-265 -3 -53 -28 c-119 -63 -178 -156 -195 -309 l-11 -98 -65 0 c-73 0 -110 -17 -142 -66 -16 -25 -19 -48 -19 -159 0 -113 3 -134 20 -163 26 -42 90 -71 157 -72 l51 0 7 -62 c16 -147 110 -264 249 -311 39 -13 88 -17 223 -17 l174 0 -3 -82 -3 -83 -490 -1 c-539 -2 -543 -2 -667 -65 -85 -43 -184 -144 -227 -232 -59 -122 -60 -146 -60 -952 0 -403 4 -748 9 -769 23 -101 118 -159 207 -125 32 12 647 620 669 661 64 121 -79 248 -198 175 -20 -12 -107 -91 -192 -175 -85 -84 -158 -152 -161 -150 -4 2 -6 246 -5 543 0 600 1 602 66 669 19 20 54 46 77 59 l42 22 1170 3 c844 2 1181 0 1211 -9 65 -17 134 -76 169 -144 l30 -58 3 -206 c4 -235 -5 -303 -50 -374 -17 -26 -300 -314 -629 -640 -669 -661 -667 -659 -761 -637 -51 12 -63 23 -335 293 -156 155 -283 285 -283 291 0 5 79 89 175 187 l175 176 0 50 c0 39 -5 56 -25 77 -45 49 -125 61 -180 27 -58 -36 -434 -414 -450 -453 -22 -53 -19 -130 6 -181 26 -52 675 -707 737 -744 94 -56 213 -76 319 -53 108 24 131 43 656 557 718 703 866 855 905 929 57 110 62 148 63 476 0 328 -5 368 -63 482 -40 79 -145 184 -224 224 -118 60 -136 62 -660 66 -264 3 -491 5 -506 5 l-28 1 0 80 0 80 168 0 c130 0 180 4 218 17 136 45 227 162 241 308 l6 65 51 0 c68 0 133 33 158 80 26 49 26 259 0 309 -24 48 -73 71 -148 71 l-62 0 -4 93 c-4 78 -9 101 -36 153 -38 76 -115 146 -188 173 -50 19 -77 21 -314 21 l-260 0 0 75 c0 41 4 75 8 75 5 0 25 16 45 35 72 70 74 176 5 251 -60 66 -138 81 -215 43z m579 -960 c52 -61 62 -197 21 -276 -21 -40 -73 -73 -116 -73 -46 0 -102 35 -122 76 -23 48 -30 147 -16 202 32 116 161 155 233 71z m-872 22 c13 -25 13 -316 0 -340 -13 -25 -35 -32 -65 -21 -25 9 -25 10 -25 145 0 74 -2 135 -5 135 -3 0 -14 -5 -24 -12 -15 -9 -23 -9 -36 2 -29 24 -14 53 45 82 65 33 95 35 110 9z m295 -3 c43 -33 65 -92 65 -173 0 -113 -39 -176 -117 -191 -46 -9 -77 1 -117 37 -43 37 -62 112 -51 198 13 106 55 151 140 151 39 0 60 -6 80 -22z m260 -167 c0 -178 -1 -184 -21 -192 -14 -5 -29 -2 -43 7 -20 14 -21 24 -21 144 l0 129 -34 -6 c-36 -6 -51 12 -39 43 8 22 102 65 133 62 l25 -3 0 -184z"/>
    <path d="M4219 5474 c-9 -11 -14 -44 -14 -94 0 -85 12 -110 51 -110 33 0 44 28 44 110 0 39 -5 80 -10 91 -13 23 -53 25 -71 3z"/>
    <path d="M3670 5480 c-16 -16 -20 -33 -20 -89 0 -89 12 -121 44 -121 15 0 30 8 36 20 30 57 18 180 -20 200 -15 8 -24 6 -40 -10z"/>
    <path d="M2728 4124 c-45 -24 -50 -61 -46 -387 l3 -299 33 -29 c35 -31 66 -36 106 -17 54 24 61 48 64 238 1 96 -1 236 -4 310 l-7 135 -33 33 c-36 36 -71 41 -116 16z"/>
    <path d="M3022 4123 c-7 -3 -19 -18 -28 -34 -26 -51 6 -109 60 -109 49 0 76 24 76 69 0 59 -53 96 -108 74z"/>
    <path d="M3294 4091 c-34 -21 -63 -73 -67 -123 -2 -28 -7 -34 -32 -38 -24 -4 -31 -12 -35 -35 -9 -48 -1 -64 34 -67 l31 -3 0 -148 c0 -135 2 -150 19 -163 27 -19 70 -18 89 4 14 16 17 43 17 165 l0 147 38 0 c52 0 78 27 65 67 -8 23 -16 29 -49 31 -48 4 -58 13 -50 45 4 19 14 25 47 30 69 9 100 55 61 90 -27 24 -127 23 -168 -2z"/>
    <path d="M4150 4095 c-9 -11 -13 -82 -14 -263 -1 -270 1 -284 54 -315 39 -24 73 -21 99 7 26 27 23 52 -9 81 -19 17 -20 32 -20 239 0 250 -4 266 -64 266 -19 0 -39 -7 -46 -15z"/>
    <path d="M3014 3926 c-18 -13 -19 -28 -19 -199 0 -168 2 -187 19 -206 23 -26 67 -27 89 -3 24 27 25 366 1 400 -18 25 -60 29 -90 8z"/>
    <path d="M3840 3925 c-82 -37 -120 -102 -120 -203 0 -91 28 -145 95 -187 42 -26 56 -29 122 -29 87 1 126 22 131 71 5 45 -14 54 -78 37 -62 -17 -95 -12 -127 18 -44 41 -32 48 90 48 61 0 119 5 127 10 21 13 18 105 -5 153 -27 58 -73 88 -142 93 -39 3 -69 -1 -93 -11z m114 -96 c14 -11 26 -29 26 -40 0 -17 -8 -19 -75 -19 -41 0 -75 3 -75 8 0 16 33 54 54 62 32 13 41 12 70 -11z"/>
    <path d="M4388 3918 c-76 -44 -89 -139 -27 -197 12 -11 51 -30 86 -42 68 -22 84 -39 62 -65 -13 -16 -16 -16 -131 2 -34 6 -39 4 -48 -21 -16 -43 -12 -55 23 -70 130 -54 264 -12 283 90 14 76 -8 104 -118 150 -56 24 -74 36 -76 53 -3 19 1 22 28 22 17 0 51 -5 76 -11 54 -14 74 -2 74 46 0 29 -5 35 -40 49 -59 23 -146 21 -192 -6z"/>
    <path d="M4784 3921 c-123 -56 -154 -251 -56 -354 44 -47 80 -61 157 -61 81 0 131 21 141 58 8 32 -13 69 -33 62 -56 -22 -103 -27 -137 -16 -32 10 -66 42 -66 62 0 4 57 9 127 10 l127 3 7 29 c20 73 -36 182 -108 212 -45 19 -110 17 -159 -5z m136 -101 c39 -39 27 -50 -55 -50 -60 0 -75 3 -75 15 0 27 38 55 75 55 22 0 43 -8 55 -20z"/>
    <path d="M3460 3791 c-15 -29 -12 -67 6 -85 19 -20 193 -23 212 -4 7 7 12 29 12 50 0 50 -18 58 -129 58 -79 0 -92 -2 -101 -19z"/>
    <path d="M3891 3265 c-38 -17 -360 -327 -403 -389 -32 -45 -37 -109 -14 -154 25 -47 288 -300 330 -317 40 -17 86 -13 118 9 9 7 150 142 313 301 277 270 300 290 339 295 50 6 90 34 139 94 42 51 48 91 18 127 -18 23 -27 24 -143 27 -87 3 -134 0 -156 -10 -17 -7 -149 -128 -293 -268 -144 -140 -270 -259 -281 -264 -16 -8 -28 -1 -66 37 l-47 47 157 155 c131 129 158 160 164 191 17 89 -87 158 -175 119z"/>
  </g>
</svg>